<svg width="1024" height="1024" viewBox="0 0 1024 1024" fill="none" xmlns="http://www.w3.org/2000/svg">
  <defs>
    <linearGradient id="bg" x1="170" y1="120" x2="850" y2="900" gradientUnits="userSpaceOnUse">
      <stop offset="0" stop-color="#3F8CFF"/>
      <stop offset="0.56" stop-color="#1464E8"/>
      <stop offset="1" stop-color="#0D48B8"/>
    </linearGradient>
    <filter id="shadow" x="40" y="40" width="944" height="944" filterUnits="userSpaceOnUse" color-interpolation-filters="sRGB">
      <feDropShadow dx="0" dy="26" stdDeviation="28" flood-color="#2358BE" flood-opacity="0.22"/>
    </filter>
  </defs>
  <rect x="92" y="92" width="840" height="840" rx="230" fill="url(#bg)" filter="url(#shadow)"/>
  <ellipse cx="390" cy="300" rx="260" ry="235" fill="white" fill-opacity="0.13"/>
  <path d="M333 382C379 299 484 258 582 291C687 326 750 431 728 540C706 649 605 724 494 708C395 694 319 622 296 529" stroke="white" stroke-width="78" stroke-linecap="round" stroke-linejoin="round"/>
  <path d="M703 276L722 444L577 364L703 276Z" fill="white"/>
  <rect x="417" y="389" width="190" height="210" rx="42" fill="white" fill-opacity="0.14" stroke="white" stroke-opacity="0.38" stroke-width="10"/>
  <rect x="461" y="443" width="102" height="24" rx="10" fill="white" fill-opacity="0.48"/>
  <circle cx="512" cy="586" r="26" fill="white" fill-opacity="0.84"/>
  <circle cx="713" cy="239" r="29" fill="white" fill-opacity="0.8"/>
</svg>