<svg xmlns="http://www.w3.org/2000/svg" viewBox="0 0 128 128" role="img" aria-labelledby="title desc">
  <title id="title">Refresh extension icon</title>
  <desc id="desc">A page with a circular refresh arrow.</desc>
  <defs>
    <linearGradient id="bg" x1="18" x2="110" y1="12" y2="116" gradientUnits="userSpaceOnUse">
      <stop offset="0" stop-color="#4fa3ff"/>
      <stop offset="1" stop-color="#105bd8"/>
    </linearGradient>
    <linearGradient id="page" x1="37" x2="91" y1="26" y2="104" gradientUnits="userSpaceOnUse">
      <stop offset="0" stop-color="#ffffff"/>
      <stop offset="1" stop-color="#e9f3ff"/>
    </linearGradient>
  </defs>
  <rect width="128" height="128" rx="30" fill="url(#bg)"/>
  <path fill="#0d3f9d" fill-opacity=".18" d="M30 37c0-8.8 7.2-16 16-16h35l25 25v45c0 8.8-7.2 16-16 16H46c-8.8 0-16-7.2-16-16V37Z"/>
  <path fill="url(#page)" d="M26 33c0-8.8 7.2-16 16-16h36l24 24v50c0 8.8-7.2 16-16 16H42c-8.8 0-16-7.2-16-16V33Z"/>
  <path fill="#cfe3ff" d="M78 17v16c0 4.4 3.6 8 8 8h16L78 17Z"/>
  <path fill="#7faeeb" d="M43 36h30a4 4 0 0 1 0 8H43a4 4 0 0 1 0-8Zm0 16h40a4 4 0 0 1 0 8H43a4 4 0 0 1 0-8Z" opacity=".58"/>
  <path fill="none" stroke="#105bd8" stroke-linecap="round" stroke-linejoin="round" stroke-width="9" d="M84 74a21 21 0 1 1-6.1-14.8"/>
  <path fill="#105bd8" d="M80 48h19v19c0 3.6-4.4 5.4-6.9 2.8L77.2 54.9C74.6 52.4 76.4 48 80 48Z"/>
  <path fill="none" stroke="#ffffff" stroke-linecap="round" stroke-linejoin="round" stroke-width="4" d="M84 74a21 21 0 1 1-6.1-14.8"/>
  <path fill="#ffffff" d="M80 48h19v19c0 3.6-4.4 5.4-6.9 2.8L77.2 54.9C74.6 52.4 76.4 48 80 48Z"/>
</svg>
